# xmcd CD database file
#
# Track frame offsets:
#	150
#	15000
#	23557
#	47847
#	59594
#	87006
#	108042
#	124166
#	148386
#
# Disc length: 2802 seconds
#
# Revision: 0
# Processed by: cddbd v1.5.1PL2 Copyright (c) Steve Scherf et al.
# Submitted via: CDex 1.51
#
DISCID=6b0af009
DTITLE=Zu - Rai Sunawachi Koe Wo Hassu
DYEAR=2006
DGENRE=Jazz
TTITLE0=Detonatore
TTITLE1=Epidurale
TTITLE2=Monte Zu
TTITLE3=Arbol De La Esperanza Mantente Firme
TTITLE4=Eli, Eli, Elu
TTITLE5=Muro Torto
TTITLE6=Untitled Samba For Kat Ex
TTITLE7=Solar Anus
TTITLE8=Mar Glaciale Artico
EXTD=YEAR: 2006
EXTT0=
EXTT1=
EXTT2=
EXTT3=
EXTT4=
EXTT5=
EXTT6=
EXTT7=
EXTT8=
PLAYORDER=
